<svg xmlns="http://www.w3.org/2000/svg" viewBox="0 0 439.88 58.7"><title>Giant Bicycles logo</title><path d="M541.1,482.79h-80.6c-8.67,1.45-15.18,6.51-19.52,14.46l-20.6,40.12c-.72,1.45-1.08,2.53-1.81,4h14.1a9.17,9.17,0,0,0,4.34-.72,26.46,26.46,0,0,0,17-14.1c4.34-8,8.67-16.27,12.65-24.58,1.81-3.61,4.7-5.06,8.31-5.42h28.92a1.12,1.12,0,0,0-.36.72c-3.25,6.87-6.87,13.37-10.12,19.88-.36.72-.72,1.08-1.45,1.08H474.23c-.72,0-1.08,0-1.45.36-4.7,2.53-9.4,5.42-14.1,8.31l-.36.36v.36H488c-2.53,4.7-4.7,9-6.87,13.73h28.55a1.67,1.67,0,0,0,1.81-1.08c2.17-4,4-8,6.14-11.57L537.12,490C538.2,487.85,539.65,485.32,541.1,482.79Z" transform="translate(-292.06 -482.65)" style="fill:#9C9C9C"/><path d="M396.16,505.2H364.71c-.72,0-1.08.36-1.81.72-6.51,3.61-12.65,7.59-19.16,11.57-.36,0-.36.36-.72.36v.36H361.1v.72a81.58,81.58,0,0,0-4,8,1.44,1.44,0,0,1-1.45.72H328.57c-.36,0-.72-.36-1.08-.36.36-.36.36-.36.36-.72,4.34-8.31,8.67-17,13-25.66,1.81-3.25,4-4.34,7.23-4.34H385a6.7,6.7,0,0,0,2.53-.72c6.14-3.61,11.93-7.23,18.07-10.84l3.25-2.17H336.16a10,10,0,0,0-3.25.36,27.65,27.65,0,0,0-18.43,14.46C307.6,511,301.1,524,294.23,537.37c-.72,1.08-1.08,2.53-2.17,4H364a10,10,0,0,0,3.25-.36,26.31,26.31,0,0,0,18.07-14.1c3.25-5.78,5.78-11.57,8.67-17.35A24.07,24.07,0,0,0,396.16,505.2Z" transform="translate(-292.06 -482.65)" style="fill:#9C9C9C"/><path d="M622.42,482.79h-73c-.72,0-1.08,0-1.45.72-2.89,6.14-6.14,12.29-9.4,18.43-6.51,12.65-13,25.3-19.16,38.31-.36,0-.36.36-.72,1.08h26.75a2,2,0,0,0,1.81-1.08c7.23-14.1,14.46-28.19,21.69-42.65.36-.72.72-1.08,1.45-1.08h24.22a5.23,5.23,0,0,1,2.53.72c1.81.36,2.17,1.81,1.81,3.61-.36.72-.72,1.08-1.08,1.81L581.58,535.2c-1.08,1.81-2.17,4-3.25,6.14h27.11a1.88,1.88,0,0,0,1.45-.72c6.14-12.65,12.65-25.3,19.16-38a92.45,92.45,0,0,0,4-8.67,11,11,0,0,0-.36-7.59C628.2,483.52,625.31,482.79,622.42,482.79Z" transform="translate(-292.06 -482.65)" style="fill:#9C9C9C"/><path d="M731.94,482.79H640.49c-.36-.36-.72,0-1.08.72-2.17,4.34-4.34,8.67-6.87,13v1.08h24.22c-7.59,14.46-14.82,28.92-22.41,43.74H661.1a1.67,1.67,0,0,0,1.81-1.08c7.23-14.1,14.46-27.83,21.33-41.93a1.67,1.67,0,0,1,1.81-1.08,202.76,202.76,0,0,0,21,0,2.17,2.17,0,0,0,1.45-.36c7.59-4.34,15.18-8.67,22.41-13.37C731.22,483.52,731.58,483.16,731.94,482.79Z" transform="translate(-292.06 -482.65)" style="fill:#9C9C9C"/><path d="M441,482.79H416.4c-.36,0-.72,0-1.08.72-1.45,2.89-2.89,5.78-4.7,8.67-6.87,13.74-14.1,27.83-21,41.57-1.45,2.53-2.53,5.06-4,7.59h24.58a1.88,1.88,0,0,0,1.45-.72c9.4-18.43,18.8-37.23,28.19-55.66Z" transform="translate(-292.06 -482.65)" style="fill:#9C9C9C"/></svg>