<?xml version="1.0" encoding="utf-8"?>
<svg viewBox="34.333 285.153 375.916 31.603" xmlns="http://www.w3.org/2000/svg">
  <path clip-rule="evenodd" d="m353.048 138.516c-4.282 0-13.405.474-13.405-6.309 0-12.61 7.829-14.192 17.347-14.192 2.992 0 7.886 2.729 7.886 5.52-.001 8.345-2.853 14.981-11.828 14.981zm-172.386-19.515c3.492-.007 20.83-1.164 20.83 2.399 0 3.095-2.396 4.856-5.666 4.856l-16.16.004zm148.731 10.053v4.729c0 8.108 10.621 10.252 18.924 10.252 15.481 0 27.599-4.365 27.599-19.713 0-11.001-14.148-11.827-23.655-11.827-10.383 0-22.868 6.175-22.868 16.559zm-128.709 2.06c13.428-1.117 14.865-17.81 0-17.81h-29.142l-5.488 30.794 10.345-.033 1.917-12.087 10.225-.055c2.29 0 8.278 9.797 8.905 12.142h11.332zm71.189-17.818-10.479.009-3.58 21.796c.104 5.342 6.49 8.965 11.676 8.965h19.428l.811-4.856c-4.18 0-8.135.346-11.6.243-8.424-.248-10.699-2.463-9.297-9.94zm-130.51 6.31 5.007 11.542-13.803-.126zm-18.391 24.459 6.476-7.285h19.428l2.545 7.241 11.216.044-16.19-30.761h-7.286l-26.713 30.761zm-108.358-25.08 13.646-.014c6.144-.004 6.477 1.547 6.477 4.856 0 2.522-4.005 4.048-6.477 4.048l-14.754-.023zm14.456 14.557c7.345 0 17-3.439 17-10.523v-1.619c0-7.986-11.199-8.096-19.428-8.096h-21.047l-5.595 30.775 10.452-.014 1.665-10.516zm84.859-20.264-10.386.026-3.377 21.023-1.479.023-15.381-21.047h-11.333l-5.833 30.729 10.69.031 3.499-22.62 17.548 22.62 10.176-.066zm-49.249.026-10.515.001-5.797 30.736 10.622.019zm161.906 12.953c1.133-11.493 25.211-8.185 28.471-8.467l.672-4.485h-18.617c-13.381 0-23.477 6.981-23.477 20.237 0 10.721 15.824 10.523 23.266 10.523h13.973l.879-5.652-21.117-.014c-4.66 0-5.666-2.537-5.666-7.285h27.373l.959-4.857zm81.422-12.961-10.479.009-3.582 21.796c.105 5.342 6.49 8.965 11.678 8.965h19.428l.809-4.856c-4.178 0-8.135.346-11.598.243-8.426-.248-10.699-2.463-9.297-9.94z" fill-rule="evenodd" transform="matrix(1, 0, 0, 1, 34.333401, 172.658386)" style="fill:#9C9C9C"/>
</svg>