<svg xmlns="http://www.w3.org/2000/svg" width="212.05" height="25.24" viewBox="0 0 212.05 25.24"><path d="M453.53,371.38H435.71l-9.12,25.24h17.8Zm-3.24,11.77,10.52,13.47h20.54L469.58,383.3,490,371.38H469.13ZM430,376.24l1.77-4.86H386.25L380,388.75a3.35,3.35,0,0,0,.37,3.32c.29.29,2.28,2.65,2.73,3.08a3.92,3.92,0,0,0,3.1,1.47h36.51l1.84-4.77H398.9a1.84,1.84,0,0,1-1.84-2.36l1.18-3.17h28.19l1.84-4.86H399.94l1.84-5.21Zm-52.32-4.86H332.38l-9.21,25.24h17.45L348,376.24h12.9a1.49,1.49,0,0,1,1.62,2,20.71,20.71,0,0,1-1.11,3,3.11,3.11,0,0,1-3,1.84H346.29l10.52,13.47h20l-9-10.08h5.38a4.64,4.64,0,0,0,4.64-3c.74-1.84,2.41-6.54,2.93-8.09,1-2.43-.52-4-3-4m-48.51,0H279.74L278,376.24h17.08l-7.37,20.38h16.78l7.37-20.38h15.68Z" transform="translate(-277.98 -371.38)" style="fill:#9C9C9C"/></svg>