<svg width="121" height="56" viewBox="0 0 121 56" fill="none" xmlns="http://www.w3.org/2000/svg">
<path d="M0.253174 12.352C0.253174 19.808 4.38117 24.384 10.9732 24.384C16.8292 24.384 20.7972 21.312 21.0852 15.872V15.712H16.0932V15.872C15.8052 18.752 14.0132 20.032 11.1012 20.032C7.51717 20.032 5.37317 17.344 5.37317 12.416C5.37317 7.424 7.61317 4.70399 11.2612 4.70399C13.8852 4.70399 15.3572 5.92 16.1252 8.896H20.9892V8.736C20.5732 3.264 16.4132 0.287994 11.1012 0.287994C4.41317 0.287994 0.253174 4.832 0.253174 12.352Z" fill="white"/>
<path d="M22.8827 24H39.5547V19.68H28.0027V14.112H38.9147V9.792H28.0027V4.99199H39.5547V0.671995H22.8827V24Z" fill="white"/>
<path d="M41.4452 24H46.5652V9.344L55.6852 24H60.7412V0.671995H55.6212V15.072L46.6292 0.671995H41.4452V24Z" fill="white"/>
<path d="M62.5642 4.99199H69.6362V24H74.7562V4.99199H81.5722V0.671995H62.5642V4.99199Z" fill="white"/>
<path d="M83.3202 24H99.9922V19.68H88.4402V14.112H99.3522V9.792H88.4402V4.99199H99.9922V0.671995H83.3202V24Z" fill="white"/>
<path d="M101.883 24H106.811V15.456H110.395C112.379 15.456 113.339 17.472 113.691 18.464L114.459 20.64C114.843 21.76 115.099 23.232 115.899 24H120.955V23.488C120.283 22.848 119.931 21.568 119.707 20.448L119.355 18.944C118.875 16.864 118.011 14.72 116.283 13.632C117.691 13.088 119.899 11.392 119.899 7.872C119.899 2.976 116.251 0.927996 110.939 0.927996H101.883V24ZM106.811 11.456V5.056H110.939C113.435 5.056 114.875 6.17599 114.875 8.32C114.875 10.464 113.403 11.456 110.907 11.456H106.811Z" fill="white"/>
<path d="M28.4139 56H39.0699C44.5739 56 47.4219 53.088 47.4219 49.216C47.4219 46.944 46.1739 45.12 43.6779 43.616C45.8219 42.208 46.7499 40.832 46.7499 38.88C46.7499 35.52 43.9019 32.672 38.9739 32.672H28.4139V56ZM33.5339 51.68V46.112H39.1019C41.3739 46.112 42.4939 47.072 42.4939 48.896C42.4939 50.688 41.3739 51.68 39.1019 51.68H33.5339ZM33.5339 41.792V36.992H38.5899C40.7659 36.992 41.8219 37.824 41.8219 39.392C41.8219 40.928 40.7659 41.792 38.5899 41.792H33.5339Z" fill="white"/>
<path d="M49.2577 56H54.3777V32.672H49.2577V56Z" fill="white"/>
<path d="M56.4452 56H61.5652V48.096L63.8052 45.792L71.3572 56H77.5012L67.1012 42.752L76.5412 32.672H70.4612L61.5652 42.656V32.672H56.4452V56Z" fill="white"/>
<path d="M79.0077 56H95.6797V51.68H84.1277V46.112H95.0397V41.792H84.1277V36.992H95.6797V32.672H79.0077V56Z" fill="white"/>
</svg>
