<svg version="1.2" xmlns="http://www.w3.org/2000/svg" viewBox="0 0 380 204" width="125" height="75">
	<title>5023495-ai</title>
	<defs>
		<clipPath clipPathUnits="userSpaceOnUse" id="cp1">
			<path d="m364.54-26.66h-280.08v159.95h280.08z"/>
		</clipPath>
	</defs>
	<style>
		.s0 { fill: #9c9c9c } 
		.s1 { fill: #404040 } 
		.s2 { fill: #ffbb00 } 
		.s3 { fill: #394769 } 
		.s4 { fill: #ffffff } 
	</style>
	<g id="OBJECTS">
		<g id="&lt;Group&gt;">
			<g id="&lt;Clip Group&gt;" clip-path="url(#cp1)">
				<g id="&lt;Group&gt;">
					<path id="&lt;Path&gt;" class="s0" d="m331.9 135.2h-102.4l100.5-31.7-0.5-2.4-100.6 31.7 88.9-60.2-1.3-2.1-88.9 60.2 68.5-82.8-1.9-1.5-68.5 82.8 41.4-97.4-2.3-0.8-41.4 97.5 10.2-102.5h-2.5l-10.2 102.5-22-97.5-2.5 0.8 22 97.5-52-82.9-2.2 1.5 52 82.8-76.9-60.2-1.7 2.1 76.9 60.2-94.3-31.7-1 2.4 94.3 31.7h-102.5l-0.2 2.5h102.4l-100.6 31.7 0.6 2.4 100.6-31.7-88.9 60.2 1.3 2.1 88.9-60.2-68.5 82.9 1.9 1.4 68.5-82.8-41.4 97.4 2.3 0.8 41.4-97.5-10.2 102.5h2.5l10.2-102.5 22 97.5 2.5-0.8-22-97.4 52 82.8 2.2-1.4-52-82.9 76.9 60.2 1.7-2.1-76.9-60.2 94.3 31.7 1-2.4-94.3-31.7h102.4z"/>
					<g id="&lt;Group&gt;">
						<path id="&lt;Compound Path&gt;" fill-rule="evenodd" class="s1" d="m345.2 162.2c-1.5 4.6-10.6 6.9-12.6 11.3-2 4.5 2.7 11.9 0.3 16.1-2.5 4.2-11.7 4.5-14.6 8.5-2.9 4 0 12.4-3.3 16-3.3 3.7-12.2 2-15.8 5.3-3.7 3.3-2.8 12.3-6.8 15.3-4 2.9-12-0.8-16.2 1.7-4.2 2.5-5.5 11.7-9.9 13.7-4.4 2.1-11.2-3.4-15.9-1.8-4.5 1.5-7.7 10.4-12.5 11.4-4.6 1-9.9-5.9-14.6-5.4-4.7 0.5-9.8 8.6-14.5 8.6-4.8 0-8.3-8.1-12.8-8.6-4.7-0.5-11.3 6.4-15.8 5.4-4.5-1-6-9.9-10.2-11.4-4.3-1.6-12.2 3.9-16.2 1.8-4.1-2-3.5-11.2-7.2-13.7-3.7-2.5-12.5 1.2-15.9-1.7-3.3-3-0.7-12-3.7-15.3-3-3.3-12.2-1.6-14.7-5.3-2.6-3.6 1.9-12-0.2-16-2.1-4-11.2-4.3-12.9-8.5-1.6-4.2 4.6-11.6 3.5-16.1-1.1-4.4-9.7-6.7-10.3-11.3-0.6-4.6 6.9-10.5 6.9-15.2-0.1-4.7-7.7-8.9-7.3-13.7 0.5-4.7 9-9 10-13.6 1-4.7-5.4-10.7-3.9-15.2 1.5-4.7 10.6-7 12.6-11.4 2-4.5-2.7-11.8-0.3-16 2.5-4.3 11.7-4.6 14.6-8.6 2.9-4 0.1-12.3 3.4-16 3.3-3.7 12.1-2 15.7-5.3 3.7-3.3 2.9-12.3 6.8-15.2 4-3 12 0.7 16.2-1.8 4.2-2.5 5.5-11.7 9.9-13.7 4.4-2 11.3 3.4 15.9 1.8 4.5-1.5 7.8-10.3 12.5-11.4 4.6-1 9.9 5.9 14.7 5.4 4.6-0.5 9.7-8.6 14.5-8.6 4.7 0 8.2 8.1 12.7 8.6 4.7 0.5 11.3-6.4 15.8-5.4 4.5 1.1 6 9.9 10.2 11.4 4.3 1.6 12.2-3.8 16.2-1.8 4.1 2.1 3.5 11.2 7.2 13.7 3.7 2.5 12.5-1.2 15.9 1.8 3.4 2.9 0.7 11.9 3.7 15.2 3 3.3 12.2 1.6 14.8 5.3 2.5 3.7-2 12 0.1 16 2.1 4 11.2 4.3 12.9 8.6 1.6 4.2-4.6 11.5-3.5 16 1.1 4.4 9.7 6.7 10.3 11.4 0.6 4.5-6.9 10.5-6.9 15.2 0.1 4.6 7.8 8.9 7.3 13.6-0.5 4.8-9 9-10 13.7-1 4.7 5.4 10.6 3.9 15.2zm-163.3-94.1q0.4 0.5 0.7 0.9l40.6 45 49.4-45q0.4-0.4 0.9-0.9c7.2-6.5 2.9-11.9 1.9-12.6-25-21.6-63.6-21.6-92.8 0-1 0.6-6.5 6.1-0.7 12.6zm20.1 65.1l-40.5-45q-0.4-0.3-0.8-0.8c-5.9-6.5-11.7-1.6-12.6-0.6-24.2 27.1-28.1 65.7-9.2 92.8 0.5 1 5.5 5.9 12.7-0.6q0.5-0.4 0.9-0.8zm58.6 65.1q-0.4-0.5-0.7-0.9l-40.5-45-49.5 45q-0.4 0.5-0.9 0.9c-7.1 6.5-2.8 11.9-1.9 12.7 25 21.5 63.6 21.5 92.9 0 1-0.7 6.5-6.2 0.6-12.7zm43.1-111.5c-0.6-1-5.6-5.9-12.7 0.6q-0.5 0.5-1 0.8l-49.5 45 40.6 45q0.3 0.3 0.8 0.8c5.8 6.5 11.7 1.6 12.5 0.6 24.3-27.1 28.1-65.7 9.3-92.8z"/>
					</g>
				</g>
			</g>
			<g id="&lt;Group&gt;">
				<path id="CENTER BIKE" class="s2" aria-label="CENTER BIKE"  d="m101.7 146.4l-0.5 4.5q-2-2-4.3-3-2.4-1-5.1-1-5.5 0-8.8 3.3-3.4 3.4-4.1 9.7-0.8 6.3 1.7 9.7 2.5 3.3 7.9 3.3 2.8 0 5.4-1 2.6-1 5.1-3l-0.6 4.5q-2.5 1.5-5.1 2.3-2.6 0.8-5.5 0.8-7.2 0-10.8-4.5-3.7-4.4-2.7-12.1 0.9-7.7 5.7-12.1 4.7-4.5 11.9-4.5 2.9 0 5.3 0.8 2.5 0.7 4.5 2.3zm3.1 29.4l3.9-31.9h20.2l-0.4 3.6h-15.9l-1.2 9.5h15.2l-0.4 3.6h-15.2l-1.5 11.6h16.3l-0.4 3.6zm27.7 0l3.9-31.9h5.8l10.9 26.7 3.3-26.7h4.2l-4 31.9h-5.8l-10.8-26.7-3.4 26.7zm31.9-28.3l0.5-3.6h27l-0.5 3.6h-11.3l-3.5 28.3h-4.4l3.6-28.3zm27.7 28.3l3.9-31.9h20.2l-0.4 3.6h-15.9l-1.2 9.5h15.2l-0.4 3.6h-15.2l-1.5 11.6h16.3l-0.5 3.6zm44.7-14.9q1.4 0.4 2.5 2 1.1 1.5 2.1 4.2l3.3 8.7h-4.6l-3.1-8.2q-1.2-3.2-2.5-4.2-1.4-1.1-4-1.1h-4.7l-1.6 13.5h-4.4l4-31.9h9.8q5.4 0 7.8 2.3 2.5 2.3 1.9 6.9-0.4 3-2 5-1.7 2-4.5 2.8zm-3.7-13.5h-5.4l-1.4 11.4h5.4q3.1 0 4.9-1.4 1.8-1.5 2.1-4.3 0.4-2.8-1.1-4.2-1.4-1.5-4.5-1.5zm44.3 13.2h-7l-1.4 11.7h6.9q3.5 0 5.4-1.4 1.8-1.5 2.2-4.5 0.4-3-1.1-4.4-1.5-1.4-5-1.4zm1.1-13.2h-6.4l-1.2 9.7h6.4q3.1 0 4.8-1.2 1.7-1.2 2-3.6 0.3-2.5-1.1-3.7-1.4-1.2-4.5-1.2zm-14.3 28.4l4-31.9h11q5 0 7.4 2 2.4 2.1 1.9 5.9-0.3 2.9-1.9 4.7-1.6 1.7-4.3 2.1 3.1 0.7 4.6 2.9 1.5 2.1 1.1 5.4-0.5 4.3-3.7 6.6-3.2 2.3-8.6 2.3zm30.1 0l3.9-31.9h4.3l-3.9 31.9zm12.9 0l4-31.9h4.3l-1.7 13.5 16-13.5h5.6l-17.7 14.9 14.9 17h-5.7l-13.4-15.3-2 15.3zm28.8 0l3.9-31.9h20.2l-0.4 3.6h-15.9l-1.2 9.5h15.3l-0.5 3.6h-15.2l-1.4 11.6h16.2l-0.4 3.6z"/>
				<path id="BICICLETARIA DO TARZAN" class="s1" aria-label="BICICLETARIA DO TARZAN"  d="m69.4 191.1c0.7-0.3 1.2-1 1.4-1.9 0.1-1.3-0.9-2.1-2.8-2.1h-3.7l-1.1 8.3h4c2.1 0 3.3-0.8 3.5-2.2 0.1-1.1-0.4-1.8-1.3-2.1zm-1.6-3.1c1.2 0 1.9 0.5 1.7 1.4-0.1 0.9-0.8 1.3-2 1.3h-2.5l0.3-2.7zm-0.5 6.5h-2.7l0.3-2.8h2.8c1.3 0 2 0.4 1.9 1.4-0.2 1-0.9 1.4-2.3 1.4zm11.7 0.9h1.2l1-8.3h-1.2zm14.1 0.1c1.3 0 2.4-0.5 3.3-1.3l-0.7-0.8c-0.7 0.7-1.5 1-2.5 1-1.8 0-3.1-1.4-2.8-3.2 0.2-1.9 1.8-3.2 3.6-3.2 1 0 1.7 0.3 2.3 1l0.8-0.8c-0.6-0.9-1.7-1.3-3-1.3-2.5 0-4.6 1.8-4.9 4.3-0.3 2.5 1.3 4.3 3.9 4.3zm11.5-0.1h1.2l1-8.4h-1.2zm14.1 0.1c1.3 0 2.5-0.5 3.3-1.3l-0.6-0.8c-0.8 0.7-1.6 1-2.5 1-1.9 0-3.1-1.3-2.9-3.2 0.2-1.8 1.8-3.2 3.7-3.2 0.9 0 1.6 0.3 2.2 1l0.9-0.8c-0.7-0.8-1.7-1.3-3-1.3-2.6 0-4.7 1.8-5 4.3-0.3 2.5 1.4 4.3 3.9 4.3zm11.5-0.1h5.8l0.1-1h-4.5l0.9-7.4h-1.2zm15-1l0.3-2.7h4.2l0.2-1h-4.2l0.3-2.6h4.7l0.1-1h-5.9l-1 8.3h6.1l0.1-1zm15 1h1.1l1-7.3h2.8l0.1-1h-6.9l-0.1 1h2.9zm17.8 0h1.2l-2.7-8.4h-1.2l-4.8 8.4h1.2l1.2-2.1h4.4zm-4.6-3l2.4-4.1 1.3 4.1zm20.6 3l-1.7-2.8c1.2-0.4 2-1.3 2.2-2.6 0.2-1.9-1-3-3.1-3h-3.3l-1 8.4h1.2l0.3-2.5h2c0.2 0 0.4 0 0.6-0.1l1.4 2.6zm-3.2-3.5h-2l0.5-3.8h2c1.5 0 2.2 0.7 2.1 1.9-0.2 1.2-1 1.9-2.6 1.9zm11.7 3.5h1.2l1-8.4h-1.2zm16.6 0h1.2l-2.7-8.3h-1.2l-4.8 8.3h1.2l1.2-2h4.4zm-4.5-3.1l2.3-4.1 1.3 4.1zm23.5 3.1h3.5c2.7 0 4.8-1.7 5.1-4.2 0.3-2.5-1.3-4.2-4-4.2h-3.6zm1.4-1.1l0.7-6.2h2.3c2.1 0 3.2 1.2 3 3.1-0.2 1.9-1.7 3.1-3.8 3.1zm19 1.2c2.5 0 4.6-1.8 4.9-4.3 0.3-2.5-1.3-4.3-3.9-4.3-2.6 0-4.7 1.9-5 4.3-0.3 2.5 1.4 4.3 4 4.3zm0.1-1.1c-1.9 0-3.1-1.3-2.9-3.2 0.3-1.9 1.8-3.2 3.7-3.2 1.8 0 3.1 1.3 2.8 3.2-0.2 1.9-1.8 3.2-3.6 3.2zm24.3 1h1.1l1-7.3h2.8l0.1-1.1h-6.9l-0.1 1.1h2.9zm17.8 0h1.2l-2.7-8.4h-1.2l-4.8 8.4h1.2l1.2-2.1h4.4zm-4.6-3.1l2.4-4.1 1.3 4.1zm20.6 3.1l-1.7-2.8c1.2-0.5 2-1.4 2.2-2.7 0.2-1.8-1-2.9-3.1-2.9h-3.3l-1 8.4h1.2l0.3-2.6h2c0.2 0 0.4 0 0.6 0l1.4 2.6zm-3.2-3.6h-2l0.5-3.8h2c1.5 0 2.2 0.7 2.1 1.9-0.2 1.2-1 1.9-2.6 1.9zm12.7 2.5l6-6.5 0.1-0.8h-6.8l-0.1 1h5.2l-6.1 6.6-0.1 0.8h7l0.1-1.1zm19.8 1.1h1.2l-2.7-8.4h-1.2l-4.8 8.4h1.2l1.2-2.1h4.4zm-4.5-3.1l2.3-4.1 1.3 4.1zm20.7-5.3l-0.8 6.2-4.2-6.2h-1l-1 8.4h1.2l0.7-6.3 4.3 6.3h1l1-8.4z"/>
			</g>
			<path id="&lt;Path&gt;" class="s3" d="m180.1 28.1l-111.4 2.1 100.5 15.8"/>
			<path id="&lt;Path&gt; copy 2" class="s0" d="m180.1 28.1l-111.4 2.1 100.5 15.8"/>
			<path id="&lt;Path&gt;" class="s3" d="m148.5 55.8l-146.9 2.4 132.5 17.9"/>
			<path id="&lt;Path&gt; copy" class="s0" d="m146.5 55.8l-146.9 2.4 132.5 17.9"/>
			<path id="&lt;Path&gt;" class="s4" d="m363.6 73.7l-90 1.4 81.1 11"/>
			<g id="&lt;Group&gt;">
				<path id="&lt;Path&gt;" class="s2" d="m86 143.7l-75.2 1.2 67.8 9.2"/>
			</g>
		</g>
	</g>
</svg>